<?xml version="1.0" encoding="iso-8859-1"?>
<!-- Generator: Adobe Illustrator 19.0.0, SVG Export Plug-In . SVG Version: 6.00 Build 0)  -->
<svg xmlns="http://www.w3.org/2000/svg" xmlns:xlink="http://www.w3.org/1999/xlink" version="1.1" id="Capa_1" x="0px" y="0px" viewBox="0 0 512.003 512.003" style="enable-background:new 0 0 512.003 512.003;" xml:space="preserve" width="512px" height="512px">
<g>
	<g>
		<g>
			<path d="M509.523,332.564c-3.156-5.191-8.808-8.341-14.883-8.296H369.122c-17.915-33.855-50.009-57.943-87.521-65.686v-28.18     h29.867c2.618-0.001,5.091-1.204,6.708-3.262l46.933-59.733c1.183-1.502,1.825-3.359,1.825-5.271V8.535     c0-4.713-3.82-8.533-8.533-8.533h-204.8c-4.713,0-8.533,3.82-8.533,8.533v153.6c0,1.912,0.643,3.768,1.825,5.271l46.933,59.733     c1.617,2.059,4.09,3.261,6.708,3.262h29.867v28.18c-37.511,7.744-69.606,31.832-87.521,65.686H17.364     c-6.075-0.046-11.727,3.105-14.883,8.296c-3.084,5.015-3.307,11.282-0.588,16.504l8.817,17.063     c2.993,5.772,8.969,9.379,15.471,9.337h9.148c-0.018,2.687,0.61,5.34,1.832,7.733l8.816,17.063     c2.991,5.772,8.966,9.379,15.467,9.338h9.151c-0.018,2.687,0.61,5.339,1.832,7.733l8.817,17.063     c2.991,5.772,8.966,9.379,15.467,9.337h9.152c-0.018,2.687,0.609,5.339,1.828,7.733l8.821,17.071     c2.996,5.766,8.969,9.369,15.467,9.329h37.297c48.863,45.511,124.593,45.511,173.455,0h37.297     c6.5,0.039,12.474-3.565,15.471-9.333l8.817-17.071c1.219-2.393,1.846-5.044,1.828-7.729h9.152     c6.5,0.041,12.474-3.564,15.467-9.333l8.813-17.067c1.223-2.393,1.852-5.046,1.835-7.733h9.153     c6.499,0.041,12.474-3.564,15.467-9.333l8.813-17.067c1.223-2.393,1.852-5.046,1.835-7.733h9.148     c6.501,0.041,12.476-3.564,15.471-9.333l8.817-17.071C512.83,343.844,512.607,337.578,509.523,332.564z M213.335,213.335h-8.654     l-42.546-54.15V17.068h51.2V213.335z M298.668,17.068h51.2v142.117l-42.546,54.15h-8.654V17.068z M230.402,17.068h51.2v196.267     h-51.2V17.068z M264.535,230.402v26.032c-2.833-0.188-5.653-0.432-8.533-0.432c-2.88,0-5.7,0.244-8.533,0.432v-26.032H264.535z      M38.364,358.402l-12.488-0.1l-8.512-16.967H135.47c-2.027,5.567-3.661,11.27-4.888,17.067H38.364z M73.627,392.535l-12.483-0.1     l-8.517-16.967h75.807c-0.188,2.833-0.432,5.653-0.432,8.533c0,2.88,0.244,5.7,0.432,8.533H73.627z M96.41,426.568l-8.517-16.967     h42.689c1.226,5.788,2.856,11.483,4.879,17.043L96.41,426.568z M131.673,460.702l-8.513-16.967h19.721     c3.19,5.953,6.845,11.644,10.931,17.021L131.673,460.702z M256.002,494.935c-61.267,0-110.933-49.667-110.933-110.933     s49.667-110.933,110.933-110.933c61.239,0.068,110.866,49.695,110.933,110.933C366.935,445.269,317.268,494.935,256.002,494.935z      M380.027,460.802h-21.869c4.1-5.39,7.767-11.097,10.965-17.067h19.972L380.027,460.802z M415.293,426.668h-38.76     c2.027-5.567,3.661-11.27,4.888-17.067h42.935L415.293,426.668z M450.56,392.535h-66.991c0.188-2.833,0.432-5.653,0.432-8.533     c0-2.88-0.244-5.7-0.432-8.533h76.054L450.56,392.535z M485.823,358.402H381.421c-1.228-5.799-2.862-11.504-4.891-17.073     l118.413-0.093L485.823,358.402z" fill="#FFFFFF"/>
			<path d="M325.556,359.448l-42.667-6.517l-19.163-40.821c-1.406-2.995-4.416-4.908-7.725-4.908c-3.309,0-6.319,1.913-7.725,4.908     l-19.163,40.821l-42.667,6.517c-3.162,0.483-5.788,2.694-6.803,5.727s-0.25,6.379,1.982,8.669l31.125,31.9l-7.362,45.15     c-0.527,3.225,0.834,6.469,3.506,8.351c2.672,1.882,6.184,2.073,9.044,0.49l38.062-21.037l38.063,21.037     c2.86,1.582,6.372,1.392,9.044-0.49c2.672-1.882,4.033-5.126,3.506-8.351l-7.362-45.15l31.125-31.9     c2.233-2.29,2.998-5.636,1.982-8.669S328.717,359.931,325.556,359.448z M284.027,396.91c-1.892,1.938-2.75,4.66-2.313,7.333     l5.229,32.054l-26.813-14.817c-2.569-1.422-5.689-1.422-8.258,0l-26.813,14.817l5.229-32.054c0.438-2.673-0.42-5.395-2.313-7.333     l-22.533-23.096l30.75-4.696c2.813-0.433,5.227-2.237,6.438-4.813l13.371-28.487l13.371,28.487     c1.211,2.576,3.624,4.38,6.438,4.813l30.75,4.696L284.027,396.91z" fill="#FFFFFF"/>
		</g>
	</g>
</g>
<g>
</g>
<g>
</g>
<g>
</g>
<g>
</g>
<g>
</g>
<g>
</g>
<g>
</g>
<g>
</g>
<g>
</g>
<g>
</g>
<g>
</g>
<g>
</g>
<g>
</g>
<g>
</g>
<g>
</g>
</svg>
